dataset
version=1
nRows=19
nColumns=39
inDegrees=no
endheader
time	sternoclavicular_r2	sternoclavicular_r3	unrotscap_r3	unrotscap_r2	acromioclavicular_r2	acromioclavicular_r3	acromioclavicular_r1	unrothum_r1	unrothum_r3	unrothum_r2	elv_angle	shoulder_elv	shoulder1_r2	shoulder_rot	elbow_flexion	pro_sup	deviation	flexion	cmc_abduction	cmc_flexion	mp_flexion	ip_flexion	mcp2_flexion	mcp2_abduction	pm2_flexion	md2_flexion	mcp3_flexion	mcp3_abduction	pm3_flexion	md3_flexion	mcp4_flexion	mcp4_abduction	pm4_flexion	md4_flexion	mcp5_flexion	mcp5_abduction	pm5_flexion	md5_flexion
2.305000	-0.011097	-0.304554	0.138278	0.047885	0.036408	0.057934	-0.147141	-0.103275	-0.064715	0.111933	0.050320	0.027437	0.146525	0.146525	1.885337	1.302399	0.000000	0.000000	0.000000	0.000000	0.000000	0.000000	0.000000	0.000000	0.000000	0.000000	0.000000	0.000000	0.000000	0.000000	0.000000	0.000000	0.000000	0.000000	0.000000	0.000000	0.000000	0.000000
2.310000	-0.011018	-0.303782	0.137499	0.048238	0.036807	0.057707	-0.146354	-0.103093	-0.063960	0.112363	0.050978	0.027437	0.146525	0.146525	1.873315	1.302831	0.000000	0.000000	0.000000	0.000000	0.000000	0.000000	0.000000	0.000000	0.000000	0.000000	0.000000	0.000000	0.000000	0.000000	0.000000	0.000000	0.000000	0.000000	0.000000	0.000000	0.000000	0.000000
2.315000	-0.010943	-0.303013	0.136717	0.048599	0.037213	0.057483	-0.145561	-0.102890	-0.063215	0.112799	0.051642	0.027437	0.146525	0.146525	1.861262	1.303259	0.000000	0.000000	0.000000	0.000000	0.000000	0.000000	0.000000	0.000000	0.000000	0.000000	0.000000	0.000000	0.000000	0.000000	0.000000	0.000000	0.000000	0.000000	0.000000	0.000000	0.000000	0.000000
2.320000	-0.010870	-0.302247	0.135933	0.048967	0.037625	0.057262	-0.144765	-0.102665	-0.062483	0.113241	0.052312	0.027437	0.146525	0.146525	1.849188	1.303683	0.000000	0.000000	0.000000	0.000000	0.000000	0.000000	0.000000	0.000000	0.000000	0.000000	0.000000	0.000000	0.000000	0.000000	0.000000	0.000000	0.000000	0.000000	0.000000	0.000000	0.000000	0.000000
2.325000	-0.010801	-0.301487	0.135148	0.049341	0.038044	0.057045	-0.143967	-0.102421	-0.061764	0.113689	0.052986	0.027437	0.146525	0.146525	1.837101	1.304103	0.000000	0.000000	0.000000	0.000000	0.000000	0.000000	0.000000	0.000000	0.000000	0.000000	0.000000	0.000000	0.000000	0.000000	0.000000	0.000000	0.000000	0.000000	0.000000	0.000000	0.000000	0.000000
2.330000	-0.010735	-0.300732	0.134365	0.049721	0.038468	0.056832	-0.143168	-0.102156	-0.061059	0.114141	0.053665	0.027437	0.146525	0.146525	1.825011	1.304517	0.000000	0.000000	0.000000	0.000000	0.000000	0.000000	0.000000	0.000000	0.000000	0.000000	0.000000	0.000000	0.000000	0.000000	0.000000	0.000000	0.000000	0.000000	0.000000	0.000000	0.000000	0.000000
2.335000	-0.010673	-0.299985	0.133584	0.050108	0.038898	0.056622	-0.142370	-0.101872	-0.060370	0.114598	0.054347	0.027437	0.146525	0.146525	1.812926	1.304927	0.000000	0.000000	0.000000	0.000000	0.000000	0.000000	0.000000	0.000000	0.000000	0.000000	0.000000	0.000000	0.000000	0.000000	0.000000	0.000000	0.000000	0.000000	0.000000	0.000000	0.000000	0.000000
2.340000	-0.010614	-0.299247	0.132807	0.050499	0.039332	0.056417	-0.141573	-0.101570	-0.059698	0.115058	0.055030	0.027437	0.146525	0.146525	1.800855	1.305331	0.000000	0.000000	0.000000	0.000000	0.000000	0.000000	0.000000	0.000000	0.000000	0.000000	0.000000	0.000000	0.000000	0.000000	0.000000	0.000000	0.000000	0.000000	0.000000	0.000000	0.000000	0.000000
2.345000	-0.010559	-0.298517	0.132035	0.050896	0.039770	0.056215	-0.140781	-0.101250	-0.059043	0.115522	0.055715	0.027437	0.146525	0.146525	1.788809	1.305730	0.000000	0.000000	0.000000	0.000000	0.000000	0.000000	0.000000	0.000000	0.000000	0.000000	0.000000	0.000000	0.000000	0.000000	0.000000	0.000000	0.000000	0.000000	0.000000	0.000000	0.000000	0.000000
2.350000	-0.010507	-0.297799	0.131268	0.051297	0.040213	0.056018	-0.139994	-0.100912	-0.058408	0.115989	0.056401	0.027437	0.146525	0.146525	1.776795	1.306122	0.000000	0.000000	0.000000	0.000000	0.000000	0.000000	0.000000	0.000000	0.000000	0.000000	0.000000	0.000000	0.000000	0.000000	0.000000	0.000000	0.000000	0.000000	0.000000	0.000000	0.000000	0.000000
2.355000	-0.010459	-0.297092	0.130509	0.051702	0.040658	0.055825	-0.139213	-0.100559	-0.057792	0.116458	0.057085	0.027437	0.146525	0.146525	1.764823	1.306508	0.000000	0.000000	0.000000	0.000000	0.000000	0.000000	0.000000	0.000000	0.000000	0.000000	0.000000	0.000000	0.000000	0.000000	0.000000	0.000000	0.000000	0.000000	0.000000	0.000000	0.000000	0.000000
2.360000	-0.010415	-0.296397	0.129758	0.052110	0.041107	0.055636	-0.138441	-0.100190	-0.057197	0.116929	0.057769	0.027437	0.146525	0.146525	1.752902	1.306888	0.000000	0.000000	0.000000	0.000000	0.000000	0.000000	0.000000	0.000000	0.000000	0.000000	0.000000	0.000000	0.000000	0.000000	0.000000	0.000000	0.000000	0.000000	0.000000	0.000000	0.000000	0.000000
2.365000	-0.010374	-0.295716	0.129017	0.052522	0.041557	0.055452	-0.137678	-0.099807	-0.056623	0.117401	0.058449	0.027437	0.146525	0.146525	1.741041	1.307261	0.000000	0.000000	0.000000	0.000000	0.000000	0.000000	0.000000	0.000000	0.000000	0.000000	0.000000	0.000000	0.000000	0.000000	0.000000	0.000000	0.000000	0.000000	0.000000	0.000000	0.000000	0.000000
2.370000	-0.010337	-0.295050	0.128286	0.052935	0.042009	0.055271	-0.136926	-0.099411	-0.056071	0.117874	0.059127	0.027437	0.146525	0.146525	1.729250	1.307627	0.000000	0.000000	0.000000	0.000000	0.000000	0.000000	0.000000	0.000000	0.000000	0.000000	0.000000	0.000000	0.000000	0.000000	0.000000	0.000000	0.000000	0.000000	0.000000	0.000000	0.000000	0.000000
2.375000	-0.010303	-0.294398	0.127567	0.053350	0.042463	0.055095	-0.136186	-0.099003	-0.055542	0.118348	0.059801	0.027437	0.146525	0.146525	1.717536	1.307985	0.000000	0.000000	0.000000	0.000000	0.000000	0.000000	0.000000	0.000000	0.000000	0.000000	0.000000	0.000000	0.000000	0.000000	0.000000	0.000000	0.000000	0.000000	0.000000	0.000000	0.000000	0.000000
2.380000	-0.010272	-0.293762	0.126860	0.053767	0.042917	0.054922	-0.135460	-0.098584	-0.055036	0.118821	0.060469	0.027437	0.146525	0.146525	1.705909	1.308336	0.000000	0.000000	0.000000	0.000000	0.000000	0.000000	0.000000	0.000000	0.000000	0.000000	0.000000	0.000000	0.000000	0.000000	0.000000	0.000000	0.000000	0.000000	0.000000	0.000000	0.000000	0.000000
2.385000	-0.010244	-0.293143	0.126167	0.054183	0.043371	0.054753	-0.134748	-0.098155	-0.054554	0.119294	0.061132	0.027437	0.146525	0.146525	1.694378	1.308679	0.000000	0.000000	0.000000	0.000000	0.000000	0.000000	0.000000	0.000000	0.000000	0.000000	0.000000	0.000000	0.000000	0.000000	0.000000	0.000000	0.000000	0.000000	0.000000	0.000000	0.000000	0.000000
2.390000	-0.010220	-0.292541	0.125488	0.054600	0.043824	0.054588	-0.134052	-0.097718	-0.054097	0.119765	0.061788	0.027437	0.146525	0.146525	1.682951	1.309014	0.000000	0.000000	0.000000	0.000000	0.000000	0.000000	0.000000	0.000000	0.000000	0.000000	0.000000	0.000000	0.000000	0.000000	0.000000	0.000000	0.000000	0.000000	0.000000	0.000000	0.000000	0.000000
2.395000	-0.010198	-0.291957	0.124823	0.055017	0.044276	0.054425	-0.133372	-0.097274	-0.053663	0.120235	0.062436	0.027437	0.146525	0.146525	1.671636	1.309340	0.000000	0.000000	0.000000	0.000000	0.000000	0.000000	0.000000	0.000000	0.000000	0.000000	0.000000	0.000000	0.000000	0.000000	0.000000	0.000000	0.000000	0.000000	0.000000	0.000000	0.000000	0.000000
